P2
8 8
255
65 129 129 129 129 129 129 129 
129 65 129 129 129 129 129 129 
129 129 65 129 129 129 129 129 
129 129 129 65 129 129 129 129 
129 129 129 129 65 129 129 129 
129 129 129 129 129 65 129 129 
129 129 129 129 129 129 65 129 
129 129 129 129 129 129 129 65 
