P2
4 4
256
128 128 128 128
0 128 128 128
0 0 128 128
0 0 0 128
