P2
8 8
255
64 128 128 128 128 128 128 128 
0 64 128 128 128 128 128 128 
0 0 64 128 128 128 128 128 
0 0 0 64 128 128 128 128 
0 0 0 0 64 128 128 128 
0 0 0 0 0 64 128 128 
0 0 0 0 0 0 64 128 
0 0 0 0 0 0 0 64 
